<?xml version="1.0" standalone="no"?>
<!DOCTYPE svg PUBLIC "-//W3C//DTD SVG 20010904//EN"
 "http://www.w3.org/TR/2001/REC-SVG-20010904/DTD/svg10.dtd">
<svg version="1.0" xmlns="http://www.w3.org/2000/svg"
 width="500.000000pt" height="396.000000pt" viewBox="0 0 500.000000 396.000000"
 preserveAspectRatio="xMidYMid meet">

<g transform="translate(0.000000,396.000000) scale(0.100000,-0.100000)"
fill="#000000" stroke="none">
<path d="M2960 2155 c0 -5 5 -17 10 -25 5 -8 10 -10 10 -5 0 6 -5 17 -10 25
-5 8 -10 11 -10 5z"/>
<path d="M2980 2089 c0 -10 5 -21 10 -24 6 -3 10 -1 10 4 0 6 9 11 21 11 17 0
18 2 7 13 -19 20 -48 17 -48 -4z"/>
<path d="M1908 2059 c-17 -10 -26 -58 -10 -60 4 0 31 -2 61 -3 39 -2 49 0 35
7 -9 5 -33 10 -52 11 -40 1 -54 21 -23 31 12 3 21 11 21 16 0 12 -10 11 -32
-2z"/>
<path d="M2008 2063 c6 -2 18 -2 25 0 6 3 1 5 -13 5 -14 0 -19 -2 -12 -5z"/>
<path d="M2263 2063 c114 -2 300 -2 415 0 114 1 20 2 -208 2 -228 0 -322 -1
-207 -2z"/>
<path d="M3033 2049 c28 -11 35 -37 15 -57 -14 -14 1 -16 22 -2 13 8 13 13 0
37 -10 17 -25 29 -40 30 -24 2 -24 2 3 -8z"/>
<path d="M1862 2020 c0 -14 2 -19 5 -12 2 6 2 18 0 25 -3 6 -5 1 -5 -13z"/>
<path d="M2946 1992 c-2 -4 13 -6 35 -4 21 2 39 6 39 8 0 7 -69 4 -74 -4z"/>
<path d="M2603 1983 c9 -2 23 -2 30 0 6 3 -1 5 -18 5 -16 0 -22 -2 -12 -5z"/>
<path d="M1901 1976 c2 -2 31 -6 64 -9 38 -4 53 -3 40 3 -19 8 -113 14 -104 6z"/>
<path d="M2087 1941 c42 -41 73 -50 103 -31 11 7 6 8 -16 4 -24 -5 -40 1 -80
31 l-49 36 42 -40z"/>
<path d="M3085 1970 c-3 -5 -1 -10 4 -10 6 0 11 5 11 10 0 6 -2 10 -4 10 -3 0
-8 -4 -11 -10z"/>
<path d="M2269 1945 c-19 -14 -47 -34 -64 -45 -16 -11 -26 -20 -22 -20 13 0
49 21 71 42 30 29 64 40 86 28 29 -16 38 -11 10 5 -34 20 -42 19 -81 -10z"/>
<path d="M2618 1963 c7 -3 16 -2 19 1 4 3 -2 6 -13 5 -11 0 -14 -3 -6 -6z"/>
<path d="M2912 1939 c-24 -17 -41 -34 -38 -37 5 -5 31 11 76 47 40 33 8 24
-38 -10z"/>
<path d="M3018 1963 c7 -3 16 -2 19 1 4 3 -2 6 -13 5 -11 0 -14 -3 -6 -6z"/>
<path d="M2040 1944 c8 -8 23 -20 34 -26 14 -6 11 -1 -8 16 -32 29 -45 34 -26
10z"/>
<path d="M2400 1935 c13 -14 26 -25 28 -25 3 0 -5 11 -18 25 -13 14 -26 25
-28 25 -3 0 5 -11 18 -25z"/>
<path d="M2661 1944 c15 -18 84 -64 96 -64 3 0 -18 18 -47 40 -58 43 -70 49
-49 24z"/>
<path d="M2735 1925 c17 -14 34 -25 39 -25 6 0 -5 11 -24 25 -43 32 -54 32
-15 0z"/>
<path d="M2853 1924 l-28 -26 33 22 c29 20 39 30 28 30 -3 0 -18 -12 -33 -26z"/>
<path d="M2485 1914 c-23 -13 -33 -24 -23 -24 9 0 30 11 45 25 35 30 30 30
-22 -1z"/>
<path d="M2527 1905 c-30 -26 -74 -32 -108 -15 -10 6 -19 8 -19 5 0 -12 72
-36 89 -30 10 3 30 19 46 35 35 36 30 39 -8 5z"/>
<path d="M2778 1873 c6 -2 18 -2 25 0 6 3 1 5 -13 5 -14 0 -19 -2 -12 -5z"/>
<path d="M2625 1856 c-41 -48 -45 -58 -15 -29 19 18 32 34 29 37 -2 2 -8 -1
-14 -8z"/>
<path d="M2330 1843 c0 -13 29 -38 35 -31 3 3 -4 13 -15 23 -11 10 -20 13 -20
8z"/>
<path d="M2228 1793 c6 -2 18 -2 25 0 6 3 1 5 -13 5 -14 0 -19 -2 -12 -5z"/>
<path d="M2903 1793 c15 -2 39 -2 55 0 15 2 2 4 -28 4 -30 0 -43 -2 -27 -4z"/>
<path d="M3050 1790 c20 -13 33 -13 25 0 -3 6 -14 10 -23 10 -15 0 -15 -2 -2
-10z"/>
<path d="M1870 1770 c-11 -11 -20 -25 -20 -32 0 -6 1 -9 3 -7 1 2 13 16 26 32
28 31 21 37 -9 7z"/>
<path d="M3090 1758 c0 -14 -3 -35 -7 -45 -6 -16 -5 -16 10 -4 19 15 22 38 7
61 -8 12 -10 9 -10 -12z"/>
<path d="M2457 1749 c7 -7 15 -10 18 -7 3 3 -2 9 -12 12 -14 6 -15 5 -6 -5z"/>
<path d="M1870 1665 c7 -9 15 -13 17 -11 7 7 -7 26 -19 26 -6 0 -6 -6 2 -15z"/>
<path d="M1861 1634 c13 -16 29 -19 29 -5 0 5 -9 11 -21 14 -16 4 -18 3 -8 -9z"/>
<path d="M2218 1643 c18 -2 45 -2 60 0 15 2 0 4 -33 4 -33 0 -45 -2 -27 -4z"/>
<path d="M2293 1473 c97 -2 257 -2 355 0 97 1 17 2 -178 2 -195 0 -275 -1
-177 -2z"/>
<path d="M2542 1370 c0 -14 2 -19 5 -12 2 6 2 18 0 25 -3 6 -5 1 -5 -13z"/>
<path d="M2233 1310 c0 -25 2 -35 4 -22 2 12 2 32 0 45 -2 12 -4 2 -4 -23z"/>
<path d="M3192 1135 c-17 -37 -14 -45 4 -12 9 16 14 31 11 33 -2 2 -9 -7 -15
-21z"/>
<path d="M3805 1145 c-3 -8 -7 -22 -10 -30 -8 -25 4 -17 20 15 9 18 11 30 5
30 -6 0 -13 -7 -15 -15z"/>
<path d="M2900 1129 c0 -5 5 -7 10 -4 6 3 10 8 10 11 0 2 -4 4 -10 4 -5 0 -10
-5 -10 -11z"/>
<path d="M3330 1129 c0 -5 5 -7 10 -4 6 3 10 8 10 11 0 2 -4 4 -10 4 -5 0 -10
-5 -10 -11z"/>
<path d="M3800 1080 c0 -5 5 -10 10 -10 6 0 10 5 10 10 0 6 -4 10 -10 10 -5 0
-10 -4 -10 -10z"/>
<path d="M3766 1063 c-6 -14 -5 -15 5 -6 7 7 10 15 7 18 -3 3 -9 -2 -12 -12z"/>
<path d="M1918 1014 c-1 -31 0 -58 5 -61 4 -2 7 23 7 56 0 76 -7 79 -12 5z"/>
<path d="M1262 996 c7 -8 15 -12 17 -11 5 6 -10 25 -20 25 -5 0 -4 -6 3 -14z"/>
<path d="M3600 990 c0 -5 5 -10 11 -10 5 0 7 5 4 10 -3 6 -8 10 -11 10 -2 0
-4 -4 -4 -10z"/>
<path d="M4183 853 c-7 -2 -13 -11 -13 -19 0 -17 -70 -20 -87 -3 -8 8 -17 8
-33 -1 -25 -13 -42 -4 -20 11 13 9 13 10 0 6 -17 -4 -25 -31 -15 -55 6 -16 7
-16 16 1 12 20 55 23 66 3 4 -7 18 -18 31 -25 20 -10 27 -9 53 13 17 14 37 26
45 26 21 0 17 28 -5 40 -11 5 -21 10 -23 9 -2 0 -9 -3 -15 -6z"/>
<path d="M280 830 c-9 -18 -8 -20 15 -20 14 0 25 4 25 10 0 5 -7 7 -15 4 -11
-5 -13 -2 -9 10 9 23 -3 20 -16 -4z"/>
<path d="M565 835 c-5 -2 -26 -6 -46 -9 -33 -6 -37 -10 -41 -40 -2 -19 2 -38
9 -45 10 -9 13 -6 13 16 0 47 11 55 73 50 36 -3 64 0 82 9 20 10 26 11 22 1
-6 -16 41 -15 70 1 13 7 34 10 48 6 16 -4 25 -2 25 5 0 8 -33 11 -110 9 -90
-2 -110 -5 -110 -17 0 -13 -2 -13 -12 1 -7 9 -17 14 -23 13z"/>
<path d="M850 830 c12 -8 13 -12 2 -19 -11 -6 -10 -10 3 -15 22 -8 27 -8 21 3
-3 5 2 12 12 16 16 7 15 8 -3 15 -11 5 -27 9 -35 9 -13 1 -13 0 0 -9z"/>
<path d="M914 808 c1 -29 35 -68 60 -68 6 0 -4 9 -21 20 -36 22 -43 35 -15 28
17 -5 17 -2 8 18 -17 36 -34 37 -32 2z"/>
<path d="M3896 818 c-6 -10 -18 -18 -27 -18 -16 0 -29 -19 -29 -41 0 -16 38
-10 44 7 5 14 4 15 -9 4 -11 -9 -15 -9 -15 -1 0 6 12 16 27 22 15 6 31 15 34
21 4 6 18 8 33 4 15 -4 24 -11 21 -16 -4 -6 -11 -8 -16 -5 -5 4 -9 4 -9 1 0
-2 -2 -11 -5 -19 -9 -22 19 -16 38 9 17 22 16 24 -5 35 -34 19 -69 17 -82 -3z"/>
<path d="M971 820 c0 -8 4 -22 9 -30 12 -18 12 -2 0 25 -6 13 -9 15 -9 5z"/>
<path d="M1178 810 c12 -11 24 -20 28 -20 4 0 -1 9 -11 20 -10 11 -23 20 -28
20 -6 0 -1 -9 11 -20z"/>
<path d="M1642 823 c-12 -2 -20 -8 -17 -13 3 -5 18 -5 33 -1 15 4 33 6 41 3 8
-3 11 0 7 7 -7 11 -22 12 -64 4z"/>
<path d="M1783 819 c11 -7 23 -7 28 -2 5 5 -3 9 -19 11 -24 1 -25 0 -9 -9z"/>
<path d="M1130 809 c0 -5 5 -7 10 -4 6 3 10 8 10 11 0 2 -4 4 -10 4 -5 0 -10
-5 -10 -11z"/>
<path d="M1271 813 c0 -5 4 -17 9 -28 8 -18 9 -17 9 8 1 15 -3 27 -9 27 -5 0
-10 -3 -9 -7z"/>
<path d="M1340 804 c0 -8 4 -13 9 -9 6 3 14 -3 20 -12 8 -14 10 -15 11 -3 0 8
-9 21 -20 28 -17 10 -20 10 -20 -4z"/>
<path d="M3276 805 c4 -8 11 -15 16 -15 6 0 5 6 -2 15 -7 8 -14 15 -16 15 -2
0 -1 -7 2 -15z"/>
<path d="M3738 813 c6 -2 12 -11 12 -20 0 -10 -6 -12 -22 -8 -19 6 -21 5 -10
-6 7 -7 22 -14 35 -14 13 0 21 -5 19 -13 -1 -8 2 -11 8 -7 13 8 13 35 1 35 -5
0 -13 9 -16 20 -3 11 -14 20 -23 19 -11 0 -12 -3 -4 -6z"/>
<path d="M4278 813 c-30 -7 -20 -29 17 -40 39 -12 51 -3 35 27 -11 20 -19 22
-52 13z"/>
<path d="M1235 800 c3 -5 10 -10 16 -10 5 0 9 5 9 10 0 6 -7 10 -16 10 -8 0
-12 -4 -9 -10z"/>
<path d="M4409 794 c-12 -14 -11 -16 5 -13 11 2 21 10 24 17 5 17 -13 15 -29
-4z"/>
<path d="M1311 789 c-1 -9 8 -19 19 -22 11 -3 20 -1 20 4 0 5 -6 9 -14 9 -8 0
-17 6 -19 13 -4 7 -6 6 -6 -4z"/>
<path d="M1667 789 c7 -7 15 -10 18 -7 3 3 -2 9 -12 12 -14 6 -15 5 -6 -5z"/>
<path d="M1716 792 c-3 -5 1 -9 9 -9 8 0 15 4 15 9 0 4 -4 8 -9 8 -6 0 -12 -4
-15 -8z"/>
<path d="M3440 790 c0 -5 5 -10 11 -10 5 0 7 5 4 10 -3 6 -8 10 -11 10 -2 0
-4 -4 -4 -10z"/>
<path d="M3128 783 c7 -3 16 -2 19 1 4 3 -2 6 -13 5 -11 0 -14 -3 -6 -6z"/>
<path d="M860 772 c0 -4 7 -17 15 -30 11 -15 13 -27 6 -39 -10 -20 -4 -73 9
-73 15 0 20 31 9 52 -9 18 -8 24 7 35 17 12 17 13 0 13 -11 0 -16 5 -13 14 3
7 0 19 -6 25 -13 13 -27 15 -27 3z"/>
<path d="M2880 770 c-13 -8 -12 -10 3 -10 9 0 17 5 17 10 0 12 -1 12 -20 0z"/>
<path d="M775 760 c3 -5 10 -10 16 -10 5 0 9 5 9 10 0 6 -7 10 -16 10 -8 0
-12 -4 -9 -10z"/>
<path d="M3470 754 c0 -14 3 -14 15 -4 8 7 15 14 15 16 0 2 -7 4 -15 4 -8 0
-15 -7 -15 -16z"/>
<path d="M3685 760 c3 -6 -1 -10 -9 -10 -9 0 -16 -4 -16 -9 0 -4 11 -6 25 -3
28 5 33 17 9 26 -8 3 -12 2 -9 -4z"/>
<path d="M793 732 c-11 -9 -18 -23 -15 -31 3 -10 0 -12 -12 -8 -9 4 -16 2 -16
-3 0 -24 41 -5 68 32 18 23 -1 31 -25 10z"/>
<path d="M3320 740 c0 -5 7 -7 15 -4 8 4 15 8 15 10 0 2 -7 4 -15 4 -8 0 -15
-4 -15 -10z"/>
<path d="M3368 733 c7 -3 16 -2 19 1 4 3 -2 6 -13 5 -11 0 -14 -3 -6 -6z"/>
<path d="M4027 733 c-16 -15 -5 -33 19 -33 20 0 25 4 20 16 -3 9 -6 18 -6 20
0 7 -26 5 -33 -3z"/>
<path d="M1150 720 c0 -5 5 -10 10 -10 6 0 10 5 10 10 0 6 -4 10 -10 10 -5 0
-10 -4 -10 -10z"/>
<path d="M1255 720 c-3 -5 -1 -10 4 -10 6 0 11 5 11 10 0 6 -2 10 -4 10 -3 0
-8 -4 -11 -10z"/>
<path d="M2575 720 c-3 -5 -2 -10 4 -10 5 0 13 5 16 10 3 6 2 10 -4 10 -5 0
-13 -4 -16 -10z"/>
<path d="M3260 710 c0 -5 5 -10 11 -10 5 0 7 5 4 10 -3 6 -8 10 -11 10 -2 0
-4 -4 -4 -10z"/>
<path d="M3940 710 c0 -5 6 -10 13 -10 9 0 9 -2 -1 -9 -10 -6 -10 -10 2 -21
13 -10 17 -9 22 4 3 9 1 23 -6 31 -14 17 -30 20 -30 5z"/>
<path d="M1610 699 c0 -5 5 -7 10 -4 6 3 10 8 10 11 0 2 -4 4 -10 4 -5 0 -10
-5 -10 -11z"/>
<path d="M3021 692 c-1 -25 19 -26 27 -2 3 7 0 10 -6 6 -6 -3 -13 0 -15 6 -3
7 -6 3 -6 -10z"/>
<path d="M2436 684 c-8 -22 1 -31 16 -16 9 9 9 15 1 23 -7 7 -12 5 -17 -7z"/>
<path d="M2930 690 c0 -5 5 -10 11 -10 5 0 7 5 4 10 -3 6 -8 10 -11 10 -2 0
-4 -4 -4 -10z"/>
<path d="M1080 682 c0 -4 -14 -13 -31 -19 -17 -7 -28 -17 -24 -23 4 -7 12 -7
26 0 11 6 19 7 19 1 0 -14 32 -23 44 -11 8 8 5 9 -9 5 -18 -6 -18 -5 -3 7 12
10 13 19 7 31 -10 17 -29 23 -29 9z"/>
<path d="M1720 680 c0 -5 5 -10 11 -10 5 0 7 5 4 10 -3 6 -8 10 -11 10 -2 0
-4 -4 -4 -10z"/>
<path d="M4025 680 c3 -5 14 -10 23 -10 15 0 15 2 2 10 -20 13 -33 13 -25 0z"/>
<path d="M2560 671 c0 -11 31 -24 39 -16 3 3 -1 10 -9 15 -19 12 -30 12 -30 1z"/>
<path d="M1215 660 c3 -5 8 -10 11 -10 2 0 4 5 4 10 0 6 -5 10 -11 10 -5 0 -7
-4 -4 -10z"/>
<path d="M1538 663 c7 -3 16 -2 19 1 4 3 -2 6 -13 5 -11 0 -14 -3 -6 -6z"/>
<path d="M3310 661 c0 -6 4 -13 10 -16 6 -3 7 1 4 9 -7 18 -14 21 -14 7z"/>
<path d="M1830 644 c0 -14 -3 -14 -15 -4 -9 7 -15 8 -15 2 0 -16 33 -24 42
-10 11 18 10 28 -2 28 -5 0 -10 -7 -10 -16z"/>
<path d="M3585 640 c-3 -5 -1 -10 4 -10 6 0 11 5 11 10 0 6 -2 10 -4 10 -3 0
-8 -4 -11 -10z"/>
<path d="M3430 629 c0 -5 5 -7 10 -4 6 3 10 8 10 11 0 2 -4 4 -10 4 -5 0 -10
-5 -10 -11z"/>
<path d="M2330 610 c0 -5 5 -10 11 -10 5 0 7 5 4 10 -3 6 -8 10 -11 10 -2 0
-4 -4 -4 -10z"/>
<path d="M2655 590 c3 -5 12 -7 20 -3 21 7 19 13 -6 13 -11 0 -18 -4 -14 -10z"/>
<path d="M3855 590 c3 -5 8 -10 11 -10 2 0 4 5 4 10 0 6 -5 10 -11 10 -5 0 -7
-4 -4 -10z"/>
<path d="M1518 573 c-19 -23 -31 -43 -24 -43 2 0 14 14 26 30 23 33 22 40 -2
13z"/>
<path d="M2674 565 c-16 -12 -17 -14 -3 -15 9 0 19 7 23 15 7 19 5 19 -20 0z"/>
<path d="M1258 554 c-9 -8 9 -34 23 -34 5 0 9 5 9 11 0 5 -4 8 -9 4 -5 -3 -11
2 -13 11 -2 9 -6 12 -10 8z"/>
<path d="M1168 543 c6 -2 18 -2 25 0 6 3 1 5 -13 5 -14 0 -19 -2 -12 -5z"/>
<path d="M1343 543 c-23 -9 -14 -23 15 -22 15 0 21 3 14 6 -6 2 -10 9 -6 14 6
10 -3 11 -23 2z"/>
<path d="M1445 540 c4 -6 11 -8 16 -5 14 9 11 15 -7 15 -8 0 -12 -5 -9 -10z"/>
<path d="M2359 443 c-13 -16 -12 -17 4 -4 16 13 21 21 13 21 -2 0 -10 -8 -17
-17z"/>
<path d="M2910 441 c0 -6 5 -13 10 -16 6 -3 10 1 10 9 0 9 -4 16 -10 16 -5 0
-10 -4 -10 -9z"/>
</g>
</svg>
